<svg xmlns="http://www.w3.org/2000/svg" xml:space="preserve" width="829.31116" height="243.61833" viewBox="0 0 829.31114 243.61833"><defs><clipPath id="a" clipPathUnits="userSpaceOnUse"><path d="M0 595.28h841.89V0H0Z"/></clipPath></defs><g clip-path="url(#a)" style="stroke-width:.653705" transform="matrix(2.03966 0 0 -2.03966 -443.925 728.892)"><g style="stroke-width:.653705"><path d="M0 0h-26.344v-10.403h24.213v-13.352H8.266v15.49A8.27 8.27 0 0 1 0 0" style="fill:#0054a6;fill-opacity:1;fill-rule:nonzero;stroke:none;stroke-width:.653705" transform="translate(494.132 357.17)"/></g><g style="stroke-width:.653705"><path d="M0 0h-10.402v57.58h-6.737v10.403h11.704A5.44 5.44 0 0 0 0 62.548Z" style="fill:#0054a6;fill-opacity:1;fill-rule:nonzero;stroke:none;stroke-width:.653705" transform="translate(524.794 273.014)"/></g><g style="stroke-width:.653705"><path d="M0 0h-9.967v65.232a8.736 8.736 0 0 1-8.736 8.739H-33.08v10.186h15.404C-7.914 84.157 0 76.242 0 66.479Z" style="fill:#0054a6;fill-opacity:1;fill-rule:nonzero;stroke:none;stroke-width:.653705" transform="translate(540.735 273.014)"/></g><g style="stroke-width:.653705"><path d="M0 0h-17.898c-11.065 0-20.059 9-20.059 20.059h10.4c0-5.323 4.332-9.655 9.659-9.655H0Z" style="fill:#0054a6;fill-opacity:1;fill-rule:nonzero;stroke:none;stroke-width:.653705" transform="translate(502.397 300.877)"/></g><g style="stroke-width:.653705"><path d="M0 0v-10.401h-17.898c-5.327 0-9.659-4.331-9.659-9.658h-10.404C-37.961-8.998-28.963 0-17.898 0h7.494z" style="fill:#f37021;fill-opacity:1;fill-rule:nonzero;stroke:none;stroke-width:.653705" transform="translate(502.397 340.995)"/></g><path d="M249.152 280.041h-10.403v22.777h10.403z" style="fill:#0054a6;fill-opacity:1;fill-rule:nonzero;stroke:none;stroke-width:.653705"/><g style="stroke-width:.653705"><path d="M0 0h-58.896v10.402H-.287v63.64c0 5.576 4.538 10.115 10.117 10.115h11.156V73.752H10.115V10.117C10.115 4.539 5.578 0 0 0" style="fill:#0054a6;fill-opacity:1;fill-rule:nonzero;stroke:none;stroke-width:.653705" transform="translate(276.544 273.014)"/></g><g style="stroke-width:.653705"><path d="M0 0c-4.729 0-8.573-3.845-8.573-8.575 0-4.728 3.844-8.576 8.573-8.576s8.577 3.848 8.577 8.576C8.577-3.845 4.73 0 0 0m0-27.604c-10.493 0-19.028 8.537-19.028 19.029 0 10.495 8.535 19.03 19.028 19.03S19.032 1.92 19.032-8.575c0-10.492-8.539-19.029-19.032-19.029" style="fill:#0054a6;fill-opacity:1;fill-rule:nonzero;stroke:none;stroke-width:.653705" transform="translate(243.95 322.23)"/></g><g style="stroke-width:.653705"><path d="M0 0v10.403c-6.729 0-12.351-4.836-13.565-11.216h-12.737v-10.403h22.348v7.263A3.953 3.953 0 0 0 0 0" style="fill:#0054a6;fill-opacity:1;fill-rule:nonzero;stroke:none;stroke-width:.653705" transform="translate(243.95 346.767)"/></g><g style="stroke-width:.653705"><path d="M0 0h-12.738c-1.215 6.38-6.837 11.216-13.565 11.216V.813a3.953 3.953 0 0 0 3.954-3.953v-7.263H0Z" style="fill:#f37021;fill-opacity:1;fill-rule:nonzero;stroke:none;stroke-width:.653705" transform="translate(270.253 345.954)"/></g><g style="stroke-width:.653705"><path d="M0 0h-10.404v29.191h-13.262v10.404h13.547C-4.541 39.595 0 35.056 0 29.479Z" style="fill:#0054a6;fill-opacity:1;fill-rule:nonzero;stroke:none;stroke-width:.653705" transform="translate(371.411 317.576)"/></g><g style="stroke-width:.653705"><path d="M0 0v19.725c0 5.325 4.332 9.656 9.656 9.656v10.404c-11.06 0-20.058-8.999-20.058-20.06V0Z" style="fill:#0054a6;fill-opacity:1;fill-rule:nonzero;stroke:none;stroke-width:.653705" transform="translate(312.02 317.576)"/></g><g style="stroke-width:.653705"><path d="M0 0v19.725c0 11.061-9 20.06-20.061 20.06V29.381c5.325 0 9.657-4.331 9.657-9.656V0Z" style="fill:#f37021;fill-opacity:1;fill-rule:nonzero;stroke:none;stroke-width:.653705" transform="translate(341.737 317.576)"/></g><g style="stroke-width:.653705"><path d="M0 0c-7.201 0-13.063-5.859-13.063-13.063 0-7.203 5.862-13.062 13.063-13.062 7.203 0 13.063 5.859 13.063 13.062C13.063-5.859 7.203 0 0 0m0-36.678c-13.02 0-23.615 10.594-23.615 23.615C-23.615-.041-13.02 10.552 0 10.552S23.613-.041 23.613-13.063 13.02-36.678 0-36.678" style="fill:#0054a6;fill-opacity:1;fill-rule:nonzero;stroke:none;stroke-width:.653705" transform="translate(347.499 305.16)"/></g><path d="M624.241 273.014h-10.402v84.077h10.402z" style="fill:#0054a6;fill-opacity:1;fill-rule:nonzero;stroke:none;stroke-width:.653705"/><g style="stroke-width:.653705"><path d="M0 0c-7.711 0-13.99-6.273-13.99-13.985v-41.976h-10.45v41.976C-24.44-.51-13.479 10.453 0 10.453" style="fill:#0054a6;fill-opacity:1;fill-rule:nonzero;stroke:none;stroke-width:.653705" transform="translate(577.946 346.443)"/></g><g style="stroke-width:.653705"><path d="M0 0c13.475 0 24.439-10.963 24.439-24.439v-41.975H13.982v41.975c0 7.712-6.271 13.986-13.982 13.986" style="fill:#f37021;fill-opacity:1;fill-rule:nonzero;stroke:none;stroke-width:.653705" transform="translate(577.946 356.896)"/></g><g style="stroke-width:.653705"><path d="M0 0c0-1.317.822-2.34 1.525-2.34h58.092v-10.4H1.525c-6.576 0-11.927 5.714-11.927 12.74" style="fill:#0054a6;fill-opacity:1;fill-rule:nonzero;stroke:none;stroke-width:.653705" transform="translate(393.714 330.63)"/></g><g style="stroke-width:.653705"><path d="M0 0c0 7.027 5.352 12.743 11.928 12.743H70.02V2.339H11.928c-.703 0-1.526-1.021-1.526-2.339" style="fill:#f37021;fill-opacity:1;fill-rule:nonzero;stroke:none;stroke-width:.653705" transform="translate(383.312 330.63)"/></g><g style="stroke-width:.653705"><path d="M0 0h-10.402v17.469h-58.11v10.404h58.397C-4.535 27.873 0 23.334 0 17.754Z" style="fill:#0054a6;fill-opacity:1;fill-rule:nonzero;stroke:none;stroke-width:.653705" transform="translate(453.368 273.014)"/></g><path d="M453.331 346.767h-67.307v10.403h67.307zM455.685 303.957H382.54v10.404h73.145z" style="fill:#0054a6;fill-opacity:1;fill-rule:nonzero;stroke:none;stroke-width:.653705"/><g style="stroke-width:.653705"><path d="M0 0h2.855v-6.756h7.405V0h2.865v-15.908H10.26v6.767H2.855v-6.767H0Z" style="fill:#0054a6;fill-opacity:1;fill-rule:nonzero;stroke:none;stroke-width:.653705" transform="translate(279.099 254.068)"/></g><g style="stroke-width:.653705"><path d="M0 0h3.053l2.888-11.709h.143L9.148 0h2.823l3.078-11.723h.131L18.057 0h3.066l-4.471-15.908h-2.847L10.631-4.715h-.129L7.315-15.908H4.48Z" style="fill:#0054a6;fill-opacity:1;fill-rule:nonzero;stroke:none;stroke-width:.653705" transform="translate(294.308 254.068)"/></g><path d="M326.53 242.105h-8.381v2.297h8.381zm-11.547-3.945 5.602 15.908h3.527l5.604-15.908h-3.055l-4.252 12.656h-.131l-4.25-12.656z" style="fill:#0054a6;fill-opacity:1;fill-rule:nonzero;stroke:none;stroke-width:.653705"/><g style="stroke-width:.653705"><path d="M0 0q-.38.49-1.039.74-.656.248-1.518.246-.886 0-1.535-.263t-1.006-.741a1.76 1.76 0 0 1-.355-1.084c0-.597.248-1.066.754-1.398q.749-.5 1.968-.799l1.485-.373Q.861-4.167 2.143-5.24q1.278-1.075 1.291-3c0-.938-.241-1.76-.715-2.473q-.718-1.066-2.076-1.65-1.365-.59-3.252-.59-1.846-.013-3.207.576-1.363.588-2.127 1.693c-.508.735-.788 1.623-.829 2.664h2.813q.052-.814.506-1.373a2.7 2.7 0 0 1 1.18-.837 4.7 4.7 0 0 1 1.64-.274q.946 0 1.672.287.726.284 1.119.807.396.52.406 1.191-.01.596-.345 1.012t-.955.684c-.412.181-.938.353-1.565.513l-1.814.461q-2.042.537-3.143 1.58-1.097 1.048-1.086 2.703c0 .922.25 1.743.752 2.455q.754 1.073 2.082 1.649 1.328.575 2.998.576 1.66 0 2.955-.582c.868-.389 1.539-.93 2.022-1.625a4.2 4.2 0 0 0 .748-2.371H.443A2.26 2.26 0 0 1 0 0" style="fill:#0054a6;fill-opacity:1;fill-rule:nonzero;stroke:none;stroke-width:.653705" transform="translate(339.833 250.873)"/></g><g style="stroke-width:.653705"><path d="M0 0h10.336v-2.406h-7.48v-4.35h6.941v-2.385H2.856v-4.361h7.525v-2.406H0Z" style="fill:#0054a6;fill-opacity:1;fill-rule:nonzero;stroke:none;stroke-width:.653705" transform="translate(345.896 254.068)"/></g><g style="stroke-width:.653705"><path d="M0 0q-.554 1.268-1.553 1.914-1 .647-2.318.645c-.871 0-1.643-.213-2.307-.645q-1-.647-1.56-1.914c-.371-.84-.561-1.854-.561-3.041 0-1.188.19-2.197.561-3.033q.56-1.251 1.56-1.91c.664-.438 1.436-.661 2.307-.661.879 0 1.65.223 2.318.661q1 .659 1.553 1.91.556 1.252.555 3.033Q.555-1.261 0 0m2.482-7.402q-.94-1.845-2.597-2.828-1.659-.985-3.756-.985-2.106 0-3.756.985-1.649.983-2.594 2.834-.944 1.849-.945 4.355 0 2.515.945 4.367.945 1.85 2.594 2.83 1.65.974 3.756.975 2.097 0 3.756-.975 1.657-.98 2.597-2.83.941-1.852.942-4.367 0-2.518-.942-4.361" style="fill:#0054a6;fill-opacity:1;fill-rule:nonzero;stroke:none;stroke-width:.653705" transform="translate(369.985 249.156)"/></g><g style="stroke-width:.653705"><path d="M0 0h-2.537l-7.523 10.867h-.143V0h-2.857v15.906h2.57l7.504-10.873h.14v10.873H0Z" style="fill:#0054a6;fill-opacity:1;fill-rule:nonzero;stroke:none;stroke-width:.653705" transform="translate(389.274 238.16)"/></g><g style="stroke-width:.653705"><path d="M0 0c-.35.412-.771.725-1.273.939-.5.217-1.069.323-1.698.323-.863 0-1.629-.215-2.295-.653-.668-.433-1.189-1.074-1.57-1.912q-.573-1.255-.574-3.023 0-1.781.568-3.031c.375-.838.903-1.475 1.576-1.92q1.01-.663 2.364-.664c.8 0 1.504.156 2.101.466a3.27 3.27 0 0 1 1.373 1.33q.479.862.49 2.026l.649-.096h-4.33v2.25H3.83v-1.91q0-2.011-.851-3.51A5.8 5.8 0 0 0 .59-11.699q-1.54-.812-3.504-.813-2.199 0-3.863.994-1.664.995-2.58 2.84-.92 1.847-.92 4.328c0 1.672.316 3.121.939 4.356q.94 1.853 2.592 2.838c1.096.658 2.342.99 3.73.99q1.737 0 3.182-.662c.961-.445 1.754-1.068 2.371-1.877a5.93 5.93 0 0 0 1.172-2.754H.785A4.1 4.1 0 0 1 0 0" style="fill:#0054a6;fill-opacity:1;fill-rule:nonzero;stroke:none;stroke-width:.653705" transform="translate(402.356 250.453)"/></g><g style="stroke-width:.653705"><path d="M0 0a2.33 2.33 0 0 1-1.041.74q-.657.248-1.514.246-.887 0-1.539-.263-.647-.263-1.004-.741a1.76 1.76 0 0 1-.359-1.084c0-.597.256-1.066.754-1.398q.751-.5 1.975-.799l1.48-.373q2.11-.495 3.389-1.568 1.277-1.075 1.293-3-.002-1.405-.717-2.473-.713-1.066-2.076-1.65c-.907-.393-1.993-.59-3.248-.59-1.235-.008-2.303.183-3.213.576q-1.358.588-2.123 1.693-.763 1.102-.828 2.664h2.812c.035-.543.205-1 .502-1.373a2.73 2.73 0 0 1 1.18-.837 4.7 4.7 0 0 1 1.644-.274q.946 0 1.668.287c.488.188.858.459 1.125.807q.393.52.405 1.191a1.63 1.63 0 0 1-.346 1.012q-.339.416-.955.684-.622.272-1.569.513l-1.812.461q-2.04.537-3.141 1.58-1.097 1.048-1.088 2.703c0 .922.252 1.743.754 2.455q.752 1.073 2.08 1.649 1.33.575 3.002.576 1.654 0 2.953-.582c.868-.389 1.537-.93 2.02-1.625a4.15 4.15 0 0 0 .748-2.371H.443A2.27 2.27 0 0 1 0 0" style="fill:#0054a6;fill-opacity:1;fill-rule:nonzero;stroke:none;stroke-width:.653705" transform="translate(422.823 250.873)"/></g><g style="stroke-width:.653705"><path d="M0 0h5.955q1.781 0 3.049-.67c.842-.447 1.484-1.068 1.916-1.863q.648-1.193.648-2.74.002-1.54-.654-2.719-.654-1.18-1.928-1.856t-3.076-.677H1.957v2.363h3.568c.705 0 1.287.121 1.754.367q.698.367 1.026 1.014.328.64.34 1.508-.012.878-.34 1.521c-.219.43-.565.76-1.032 1q-.705.355-1.759.356H2.855v-13.512H0Z" style="fill:#0054a6;fill-opacity:1;fill-rule:nonzero;stroke:none;stroke-width:.653705" transform="translate(428.886 254.068)"/></g><g style="stroke-width:.653705"><path d="M0 0h10.338v-2.406H2.855v-4.35h6.946v-2.385H2.855v-4.361h7.528v-2.406H0Z" style="fill:#0054a6;fill-opacity:1;fill-rule:nonzero;stroke:none;stroke-width:.653705" transform="translate(443.017 254.068)"/></g><g style="stroke-width:.653705"><path d="M0 0a3.4 3.4 0 0 1-1.33 1.037 4.4 4.4 0 0 1-1.781.356q-1.308.002-2.313-.653-1.005-.651-1.568-1.916c-.381-.844-.567-1.853-.567-3.031 0-1.193.186-2.209.567-3.043q.564-1.254 1.564-1.904c.664-.438 1.434-.653 2.305-.653.639 0 1.225.112 1.76.344q.8.348 1.334 1.004.532.658.718 1.574l2.889-.013a6.35 6.35 0 0 0-1.115-2.784q-.882-1.25-2.332-1.972-1.454-.727-3.285-.727c-1.405 0-2.661.328-3.756.983q-1.65.984-2.582 2.835-.934 1.85-.934 4.356.002 2.514.943 4.367c.629 1.233 1.493 2.178 2.588 2.826q1.642.98 3.741.979 1.756 0 3.201-.658A5.9 5.9 0 0 0 2.41 1.383c.61-.84 1-1.842 1.168-2.996H.689A3.64 3.64 0 0 1 0 0" style="fill:#0054a6;fill-opacity:1;fill-rule:nonzero;stroke:none;stroke-width:.653705" transform="translate(466.368 250.322)"/></g><path d="M475.511 238.16h-2.855v15.906h2.855zM489.227 242.105h-8.381v2.297h8.381zm-11.544-3.945 5.599 15.908h3.529l5.602-15.908h-3.055l-4.252 12.656h-.132l-4.25-12.656z" style="fill:#0054a6;fill-opacity:1;fill-rule:nonzero;stroke:none;stroke-width:.653705"/><g style="stroke-width:.653705"><path d="M0 0h2.857v-13.502h7.03v-2.406H0Z" style="fill:#0054a6;fill-opacity:1;fill-rule:nonzero;stroke:none;stroke-width:.653705" transform="translate(494.581 254.068)"/></g><g style="stroke-width:.653705"><path d="M0 0a3.4 3.4 0 0 1-1.328 1.037 4.4 4.4 0 0 1-1.779.356q-1.31.002-2.313-.653-1.008-.651-1.57-1.916-.569-1.265-.569-3.031 0-1.79.569-3.043.562-1.254 1.564-1.904c.664-.438 1.434-.653 2.307-.653.639 0 1.221.112 1.756.344q.807.348 1.336 1.004.533.658.718 1.574l2.889-.013a6.4 6.4 0 0 0-1.113-2.784q-.886-1.25-2.334-1.972-1.45-.727-3.285-.727-2.112 0-3.756.983-1.649.984-2.582 2.835-.934 1.85-.934 4.356.002 2.514.944 4.367c.63 1.233 1.494 2.178 2.587 2.826q1.642.98 3.741.979 1.755 0 3.203-.658a5.9 5.9 0 0 0 2.361-1.924c.609-.84 1-1.842 1.168-2.996H.691A3.6 3.6 0 0 1 0 0" style="fill:#0054a6;fill-opacity:1;fill-rule:nonzero;stroke:none;stroke-width:.653705" transform="translate(522.626 250.322)"/></g><path d="M531.772 238.16h-2.857v15.906h2.857z" style="fill:#0054a6;fill-opacity:1;fill-rule:nonzero;stroke:none;stroke-width:.653705"/><g style="stroke-width:.653705"><path d="M0 0h12.686v-2.406H7.777v-13.502H4.93v13.502H0Z" style="fill:#0054a6;fill-opacity:1;fill-rule:nonzero;stroke:none;stroke-width:.653705" transform="translate(534.27 254.068)"/></g><g style="stroke-width:.653705"><path d="m0 0 3.9-7.031h.166L7.967 0h3.238L5.418-9.953v-5.955H2.549v5.955L-3.229 0Z" style="fill:#0054a6;fill-opacity:1;fill-rule:nonzero;stroke:none;stroke-width:.653705" transform="translate(551.587 254.068)"/></g></g></svg>